<?xml version="1.0" encoding="UTF-8" standalone="no"?>
<!-- Generator: Adobe Illustrator 16.0.0, SVG Export Plug-In . SVG Version: 6.00 Build 0) -->

<svg
   xmlns:dc="http://purl.org/dc/elements/1.1/"
   xmlns:cc="http://creativecommons.org/ns#"
   xmlns:rdf="http://www.w3.org/1999/02/22-rdf-syntax-ns#"
   xmlns:svg="http://www.w3.org/2000/svg"
   xmlns="http://www.w3.org/2000/svg"
   xmlns:sodipodi="http://sodipodi.sourceforge.net/DTD/sodipodi-0.dtd"
   xmlns:inkscape="http://www.inkscape.org/namespaces/inkscape"
   version="1.1"
   id="Layer_1"
   x="0px"
   y="0px"
   width="1100mm"
   height="1100mm"
   viewBox="0 0 1100 1000"
   xml:space="preserve"
   sodipodi:docname="Amazon.svg"
   style="enable-background:new 0 0 1100 1000;"
   inkscape:version="0.92.3 (2405546, 2018-03-11)"><metadata
     id="metadata17057"><rdf:RDF><cc:Work
         rdf:about=""><dc:format>image/svg+xml</dc:format><dc:type
           rdf:resource="http://purl.org/dc/dcmitype/StillImage" /></cc:Work></rdf:RDF></metadata><defs
     id="defs17055" /><sodipodi:namedview
     pagecolor="#ffffff"
     bordercolor="#ffffff"
     borderopacity="1"
     objecttolerance="10"
     gridtolerance="10"
     guidetolerance="10"
     inkscape:pageopacity="0"
     inkscape:pageshadow="2"
     inkscape:window-width="1920"
     inkscape:window-height="1057"
     id="namedview17053"
     showgrid="false"
     inkscape:zoom="0.056568542"
     inkscape:cx="-3051.1667"
     inkscape:cy="460.20671"
     inkscape:window-x="-8"
     inkscape:window-y="-8"
     inkscape:window-maximized="1"
     inkscape:current-layer="Layer_1" /><path
     d="m 178.97737,704.41988 c 2.0717,-3.36247 5.38654,-3.57304 9.94513,-0.6305 103.5947,60.94853 216.30658,91.42248 338.13444,91.42248 81.21815,0 161.40077,-15.34195 240.54784,-46.02649 2.0717,-0.84045 5.07575,-2.10146 9.01278,-3.783 3.93639,-1.68155 6.73347,-2.94254 8.39119,-3.783 6.21572,-2.522 11.08448,-1.261 14.60693,3.783 3.52185,5.04399 2.38245,9.66745 -3.41864,13.87099 -7.45885,5.46455 -16.99003,11.76955 -28.59226,18.91501 -35.63712,21.43699 -75.41765,38.03994 -119.34157,49.80948 -43.92453,11.76954 -86.81291,17.654 -128.66512,17.654 -64.64336,0 -125.76488,-11.45429 -183.36334,-34.36225 -57.59909,-22.90794 -109.18946,-55.16873 -154.7711,-96.78172 -2.48628,-2.10146 -3.72942,-4.20355 -3.72942,-6.305 0,-1.261 0.41397,-2.52201 1.24314,-3.783 z M 366.07014,524.72741 c 0,-29.003 7.04425,-53.80245 21.13341,-74.39899 14.08851,-20.59654 33.35721,-36.14845 57.80606,-46.65699 22.37655,-9.66745 49.93264,-16.60296 82.6689,-20.8065 11.18827,-1.261 29.4208,-2.94254 54.69822,-5.04399 v -10.71851 c 0,-26.90154 -2.90087,-44.97545 -8.70199,-54.22298 -8.70199,-12.61 -22.37655,-18.915 -41.02366,-18.915 h -4.97257 c -13.67456,1.26099 -25.4844,5.6745 -35.42952,13.24049 -9.94514,7.566 -16.36845,18.07454 -19.2687,31.52499 -1.65773,8.40647 -5.80174,13.2405 -12.43142,14.50151 l -71.48062,-8.827 c -7.04489,-1.68155 -10.56669,-5.46454 -10.56669,-11.349 0,-1.261 0.20698,-2.73195 0.62156,-4.41349 7.04426,-37.40946 24.34444,-65.15145 51.90116,-83.226 27.55608,-18.07453 59.77395,-28.16253 96.65423,-30.26399 h 15.53927 c 47.23936,0 84.11901,12.40004 110.63957,37.1995 4.14338,4.20353 7.97663,8.7217 11.49906,13.55574 3.52182,4.83405 6.31889,9.14225 8.3912,12.92525 2.0717,3.78299 3.93641,9.24754 5.59415,16.39299 1.65711,7.14547 2.90024,12.08481 3.72941,14.81675 0.82856,2.73196 1.45013,8.61705 1.86472,17.65401 0.41397,9.03695 0.62156,14.39619 0.62156,16.07773 v 152.58099 c 0,10.92844 1.55392,20.91178 4.66178,29.94873 3.10786,9.03696 6.11191,15.55255 9.01278,19.54551 2.90025,3.99295 7.66583,10.40324 14.29612,19.23024 2.48629,3.783 3.72944,7.14545 3.72944,10.088 0,3.36246 -1.65774,6.305 -4.97257,8.827 -34.39399,30.26399 -53.04111,46.65699 -55.94138,49.17899 -4.97255,3.78299 -10.98127,4.20354 -18.02553,1.261 -5.80174,-5.044 -10.87749,-9.87804 -15.22849,-14.5015 -4.35099,-4.62346 -7.45885,-7.98654 -9.32355,-10.088 -1.86472,-2.10146 -4.86939,-6.19971 -9.01277,-12.29474 -4.14401,-6.09505 -7.04488,-10.1933 -8.70199,-12.29475 -23.20572,25.64053 -45.99624,41.61299 -68.37278,47.91799 -14.08915,4.20354 -31.49312,6.305 -52.21194,6.305 -31.90771,0 -58.11685,-9.98271 -78.62868,-29.94874 -20.51184,-19.96605 -30.76775,-48.23324 -30.76775,-84.80224 z m 106.91015,-12.61 c 0,16.393 4.04021,29.5282 12.12064,39.40624 8.08041,9.87804 18.9579,14.81675 32.63244,14.81675 1.24315,0 3.00405,-0.20996 5.28337,-0.6305 2.27866,-0.42054 3.83259,-0.6305 4.66177,-0.6305 17.40398,-4.62346 30.87093,-15.97245 40.40209,-34.04699 4.55798,-7.98655 7.97661,-16.70825 10.25592,-26.16575 2.27867,-9.45749 3.52182,-17.12879 3.72942,-23.01325 0.20698,-5.88445 0.31079,-15.55254 0.31079,-29.00299 v -15.7625 c -24.03427,0 -42.2668,1.68155 -54.69822,5.044 -36.46568,10.50855 -54.69822,33.83704 -54.69822,69.98549 z m 261.05967,203.02097 c 0.82857,-1.68154 2.0717,-3.36246 3.72944,-5.04401 10.3591,-7.14545 20.30422,-11.9795 29.83538,-14.50149 15.74625,-4.20355 31.07852,-6.51496 45.99623,-6.9355 4.1434,-0.42054 8.08041,-0.20996 11.80987,0.63049 18.64711,1.68155 29.83538,4.83406 33.56484,9.45751 1.65701,2.52199 2.48622,6.305 2.48622,11.34899 v 4.41351 c 0,14.71145 -3.93698,32.0502 -11.80981,52.01624 -7.87346,19.96603 -18.85479,36.04378 -32.9433,48.23324 -2.07232,1.68154 -3.93701,2.522 -5.59409,2.522 -0.82918,0 -1.65775,-0.20995 -2.48633,-0.6305 -2.48626,-1.26101 -3.10783,-3.57305 -1.86469,-6.93551 15.33164,-36.56898 22.99813,-61.99893 22.99813,-76.29048 0,-4.62346 -0.82919,-7.98654 -2.48627,-10.088 -4.14402,-5.044 -15.7469,-7.56599 -34.80797,-7.56599 -7.04488,0 -15.33228,0.42054 -24.86283,1.261 -10.35973,1.26099 -19.89026,2.52199 -28.59224,3.783 -2.48629,0 -4.14401,-0.42056 -4.97258,-1.26101 -0.82917,-0.84045 -1.03615,-1.68153 -0.62156,-2.52199 0,-0.42054 0.20698,-1.05105 0.62156,-1.8915 z"
     id="path17050"
     inkscape:connector-curvature="0"
     style="stroke-width:0.62601936" /><path
     style="fill:#ffffff;stroke-width:2.65262437"
     d="m 436.63556,631.71755 c -19.38736,-6.23207 -35.38497,-17.97325 -48.53422,-35.62094 -23.83092,-31.98364 -27.37665,-88.28305 -8.17562,-129.81333 9.36609,-20.25814 36.68894,-47.23857 58.55214,-57.81835 28.60747,-13.84338 67.35472,-22.94968 111.93539,-26.30683 34.52444,-2.59987 32.92217,-1.55584 32.92217,-21.45195 0,-22.37828 -4.32991,-42.1033 -11.18185,-50.93928 -15.67093,-20.20854 -52.06941,-22.45145 -78.32537,-4.82644 -9.58061,6.43121 -21.11129,23.45563 -21.11129,31.16965 0,2.20858 -2.20088,6.77262 -4.89088,10.14234 l -4.89087,6.12675 -37.90796,-4.68726 c -22.29635,-2.7569 -39.40117,-6.16204 -41.53381,-8.26833 -9.2473,-9.13311 8.95356,-55.78474 30.15423,-77.28997 32.44113,-32.90717 89.41051,-50.07425 147.3387,-44.39884 50.57435,4.95491 79.00624,18.41192 102.88495,48.69614 17.11064,21.70059 17.77472,26.56916 19.60711,143.74856 1.12208,71.7577 2.68263,108.74247 4.8764,115.5715 1.77444,5.52362 8.50094,17.85809 14.94781,27.40998 6.44684,9.55186 11.72153,19.53154 11.72153,22.17712 0,6.47306 -58.92514,57.65204 -67.69845,58.79897 -7.77624,1.01657 -20.54456,-10.32318 -39.44799,-35.03437 l -11.82262,-15.45492 -16.34224,15.45492 c -29.93833,28.31287 -56.19611,38.26389 -100.30639,38.01356 -18.64387,-0.1058 -31.25855,-1.69804 -42.77087,-5.39868 z m 95.34127,-66.8569 c 14.97626,-4.14241 35.8193,-26.529 43.51127,-46.73352 4.69666,-12.33668 6.27917,-22.99518 7.25709,-48.87766 l 1.25064,-33.10053 -26.0095,1.36185 c -42.15423,2.20719 -66.23547,14.74412 -78.94816,41.10119 -6.27974,13.01972 -6.86148,16.71306 -5.81574,36.92311 1.36984,26.47371 7.5896,38.38264 24.51534,46.93925 11.96163,6.04705 19.18428,6.55044 34.23906,2.38631 z"
     id="path17059"
     inkscape:connector-curvature="0" /><path
     style="fill:#ffffff;stroke-width:0.33157805"
     d="m 684.98011,472.17255 c -0.50212,-16.94248 -0.92584,-36.99629 -1.56641,-74.13717 -1.11835,-64.84204 -1.92623,-83.3497 -4.29297,-98.34863 -2.31145,-14.64845 -5.88967,-22.14088 -17.06526,-35.73278 -21.93421,-26.67669 -48.01812,-39.62765 -91.06787,-45.21622 -10.37845,-1.3473 -17.38482,-1.88149 -27.49,-2.0959 -51.56772,-1.0942 -100.33673,15.7701 -129.09359,44.64051 -8.38665,8.41976 -15.36056,18.57058 -22.00265,32.0258 -10.61975,21.51294 -14.34605,40.25648 -9.1497,46.0236 1.29917,1.44185 7.8951,3.19316 19.83285,5.26586 9.19478,1.59647 13.35067,2.16914 36.37901,5.013 24.05186,2.97026 23.12766,2.83613 22.13022,3.21163 -0.49558,0.18659 -13.09903,-1.24194 -37.09072,-4.20403 -31.81392,-3.92784 -36.59174,-4.59039 -38.36086,-5.31957 -4.08075,-1.68197 -6.25543,-4.03013 -7.15433,-7.72503 -0.52899,-2.1744 -0.52217,-2.38484 0.20901,-6.46059 0.89937,-5.01326 3.15975,-14.24974 4.62697,-18.90681 9.1384,-29.00634 25.19596,-50.49868 49.21989,-65.87867 28.39345,-18.17734 63.53198,-28.36961 100.08341,-29.03018 10.63112,-0.19213 24.55546,0.26075 32.87529,1.06923 33.47652,3.25307 60.14736,13.326 81.68915,30.85201 8.24755,6.71004 16.0493,15.8325 23.10939,27.02142 4.55132,7.21302 5.81998,10.64092 9.66835,26.12401 3.13098,12.59677 3.19567,12.9083 3.60464,17.35607 1.0362,11.26938 1.09664,15.44249 1.21871,84.15571 0.13358,75.1943 0.0943,84.02408 -0.31253,70.29673 z"
     id="path17061"
     inkscape:connector-curvature="0" /><path
     style="fill:#ffffff;stroke-width:0.66315609"
     d=""
     id="path17079"
     inkscape:connector-curvature="0" /><path
     style="fill:#ffffff;stroke-width:0.66315609"
     d=""
     id="path17081"
     inkscape:connector-curvature="0" /><path
     style="fill:#ffffff;stroke-width:0.66315609"
     d=""
     id="path17083"
     inkscape:connector-curvature="0" /><path
     style="fill:#ff6600;stroke-width:1.40368032"
     d="m 470.96525,842.83134 c -76.51647,-7.47583 -151.44056,-33.00563 -216.16,-73.65483 -29.34542,-18.43137 -72.41663,-52.10304 -75.75577,-59.22339 -1.4724,-3.13975 1.0712,-6.96002 4.63409,-6.96002 1.29388,0 11.09497,4.86107 21.78022,10.80237 149.59241,83.17779 330.7374,104.19324 497.10189,57.67107 22.03413,-6.16162 62.59589,-20.13105 75.48386,-25.99656 11.45481,-5.21325 15.2447,-5.37397 19.71824,-0.8362 4.16019,4.22002 4.27348,6.35897 0.58832,11.11124 -3.28023,4.23 -29.5033,21.32592 -48.73455,31.77204 -51.61453,28.03629 -122.00138,48.93985 -186.55573,55.40354 -16.61766,1.6639 -74.7332,1.60758 -92.10057,-0.0893 z"
     id="path12"
     inkscape:connector-curvature="0" /><path
     style="fill:#ff6600;stroke-width:1.40368032"
     d="m 807.42357,814.01484 c -0.43203,-1.14204 2.07825,-9.33665 5.57845,-18.21023 12.94654,-32.8217 19.13573,-57.51365 16.7788,-66.93997 -1.48878,-5.95438 -6.25286,-9.98904 -13.92678,-11.79439 -8.32918,-1.95953 -42.69118,-1.51377 -59.12458,0.76698 -20.07325,2.78591 -22.2993,2.72789 -22.2993,-0.5812 0,-6.30778 18.49898,-16.97185 38.26311,-22.05745 26.74653,-6.88228 54.43298,-7.38395 75.42706,-1.36667 11.00693,3.15483 12.46569,5.64188 12.30349,20.97723 -0.32658,30.87936 -15.50184,69.02955 -36.39468,91.49521 -9.16794,9.8581 -14.80326,12.47475 -16.60557,7.71049 z"
     id="path14"
     inkscape:connector-curvature="0" /><path
     style="fill:#fe9900;stroke-width:1.40368032"
     d="M 458.33715,840.79495 C 379.24474,830.35808 306.06868,803.0789 243.00968,760.52339 c -30.6554,-20.68786 -64.11045,-48.15579 -64.11045,-52.63724 0,-1.0588 1.05876,-2.52613 2.35281,-3.26071 1.79621,-1.01965 9.9565,2.57385 34.4942,15.18999 17.67778,9.08909 40.29459,19.93178 50.25957,24.09487 117.57114,49.11774 244.56039,63.95019 368.63507,43.05689 45.93713,-7.73548 96.19425,-21.86239 138.35326,-38.89009 15.92967,-6.43386 20.23376,-6.7988 24.59885,-2.08561 4.46889,4.82525 2.90566,8.15321 -7.29807,15.53677 -54.22153,39.23537 -133.80152,68.62581 -214.60948,79.25946 -20.89525,2.74963 -96.53065,2.75431 -117.34829,0.008 z"
     id="path16"
     inkscape:connector-curvature="0" /><path
     style="fill:#fe9900;stroke-width:1.40368032"
     d="m 808.22219,814.78417 c -0.43804,-0.71888 1.46923,-7.55778 4.23834,-15.19757 9.22281,-25.44516 15.62315,-46.50537 17.35741,-57.11429 2.32498,-14.222 0.12955,-19.92473 -9.29912,-24.15539 -6.18384,-2.7747 -8.17986,-2.88957 -35.93496,-2.06796 -16.16311,0.47846 -33.93444,1.26237 -39.49183,1.74206 -11.37375,0.98171 -12.52564,-0.12498 -6.27167,-6.02546 18.05411,-17.03376 74.88206,-26.93214 105.63744,-18.40009 14.24228,3.95104 15.32712,5.61057 14.94249,22.85804 -0.64986,29.13761 -13.85811,63.43439 -33.33644,86.5615 -5.85632,6.95336 -13.38472,13.08614 -16.08229,13.10093 -0.52963,0.003 -1.32142,-0.58287 -1.75937,-1.30177 z"
     id="path18"
     inkscape:connector-curvature="0" /></svg>