<?xml version="1.0" encoding="UTF-8" standalone="no"?>
<svg
   xmlns:dc="http://purl.org/dc/elements/1.1/"
   xmlns:cc="http://creativecommons.org/ns#"
   xmlns:rdf="http://www.w3.org/1999/02/22-rdf-syntax-ns#"
   xmlns:svg="http://www.w3.org/2000/svg"
   xmlns="http://www.w3.org/2000/svg"
   xmlns:sodipodi="http://sodipodi.sourceforge.net/DTD/sodipodi-0.dtd"
   xmlns:inkscape="http://www.inkscape.org/namespaces/inkscape"
   viewBox="0 0 100 99.148132"
   version="1.1"
   id="svg17419"
   sodipodi:docname="YouTube.svg"
   height="100mm"
   width="100mm"
   inkscape:version="0.92.3 (2405546, 2018-03-11)">
  <metadata
     id="metadata17425">
    <rdf:RDF>
      <cc:Work
         rdf:about="">
        <dc:format>image/svg+xml</dc:format>
        <dc:type
           rdf:resource="http://purl.org/dc/dcmitype/StillImage" />
      </cc:Work>
    </rdf:RDF>
  </metadata>
  <defs
     id="defs17423" />
  <sodipodi:namedview
     pagecolor="#ffffff"
     bordercolor="#666666"
     borderopacity="1"
     objecttolerance="10"
     gridtolerance="10"
     guidetolerance="10"
     inkscape:pageopacity="0"
     inkscape:pageshadow="2"
     inkscape:window-width="1920"
     inkscape:window-height="1057"
     id="namedview17421"
     showgrid="false"
     inkscape:zoom="0.84155493"
     inkscape:cx="178.21273"
     inkscape:cy="189.51348"
     inkscape:window-x="-8"
     inkscape:window-y="-8"
     inkscape:window-maximized="1"
     inkscape:current-layer="svg17419" />
  <path
     d="m 26.839559,24.726949 h 5.096488 l 0.656696,2.348522 0.555665,1.734544 0.453845,1.699216 0.455425,1.770576 0.352814,1.482311 h 0.20206 l 0.353605,-1.481604 0.402541,-1.76987 0.505151,-1.698511 0.505149,-1.733836 0.705632,-2.348523 h 4.945732 L 36.78154,38.822321 V 48.831802 H 32.089171 V 38.819496 L 26.84035,24.726949 Z m 21.497283,5.926416 c 3.985948,0 6.00418,1.698509 6.00418,5.058789 v 8.310971 c 0,3.360987 -2.018232,5.058791 -6.004969,5.058791 -3.986737,0 -6.004969,-1.697804 -6.004969,-5.058791 v -8.310971 c 0,-3.36028 2.017442,-5.058789 6.004179,-5.058789 z m 0,2.89114 c -1.060025,0 -1.615691,0.577946 -1.615691,1.66177 v 9.323436 c 0,1.047085 0.606181,1.66177 1.614902,1.66177 1.008721,0 1.614111,-0.614685 1.614111,-1.662477 v -9.323435 c 0,-1.083825 -0.60539,-1.66177 -1.614901,-1.66177 z m 18.516899,15.284471 -0.355184,-1.554377 c -1.815383,1.337471 -2.876197,1.807317 -4.137493,1.807317 -1.059236,0 -2.170566,-0.433812 -2.674136,-1.011758 -0.554877,-0.613273 -0.705631,-1.264699 -0.705631,-3.106635 v -14.09396 h 4.388488 v 13.985154 c 0,0.902952 0.355184,1.336764 1.160266,1.336764 0.556454,0 1.060815,-0.180873 1.969295,-0.722785 V 30.868857 h 4.390857 v 17.960119 z"
     id="path17413"
     inkscape:connector-curvature="0"
     style="stroke-width:0.74677014" />
  <path
     d="m 27.207372,52.099526 h 44.317425 c 6.527483,0 11.818139,4.738731 11.818139,10.581775 v 9.22452 c 0,5.843044 -5.290656,10.578948 -11.817349,10.578948 H 27.207372 c -6.527483,0 -11.818138,-4.737317 -11.818138,-10.579654 v -9.224521 c 0,-5.843044 5.291444,-10.581068 11.818138,-10.581068 z"
     id="path17415"
     inkscape:connector-curvature="0"
     style="fill:#cb322c;stroke-width:0.74677014" />
  <path
     d="m 25.740859,59.027809 h -3.990683 v -2.858641 h 12.431421 v 2.858641 h -4.175379 v 19.053127 h -4.265359 z m 16.328968,19.055247 -0.321244,-1.41307 c -1.651208,1.21524 -2.61415,1.643401 -3.760997,1.643401 -0.962943,0 -1.973243,-0.394246 -2.431034,-0.920615 -0.50515,-0.558163 -0.642489,-1.148826 -0.642489,-2.82614 V 61.756446 h 3.991474 v 12.713391 c 0,0.8217 0.321243,1.21524 1.055289,1.21524 0.50515,0 0.962942,-0.163917 1.789336,-0.657078 V 61.756446 h 3.990683 v 16.328023 h -3.670229 z m 7.982946,-21.911062 h 3.990683 v 7.128938 c 1.55965,-1.248448 2.614151,-1.741609 3.807567,-1.741609 0.917952,0 1.925884,0.394246 2.385254,0.919909 0.505151,0.590662 0.642489,1.182739 0.642489,2.923641 v 9.066964 c 0,1.708401 -0.138128,2.299771 -0.642489,2.889727 -0.457791,0.560283 -1.468091,0.953823 -2.431033,0.953823 -1.193417,0 -2.202138,-0.492455 -3.761788,-1.773404 v 1.54378 H 50.052773 V 56.173407 Z m 5.77923,19.514496 c 0.734045,0 1.055289,-0.39566 1.055289,-1.216653 v -9.066964 c 0,-0.854907 -0.321244,-1.21524 -1.055289,-1.21524 -0.50515,0 -0.962942,0.163916 -1.788547,0.657078 v 10.183288 c 0.825605,0.493161 1.284185,0.657078 1.788547,0.657078 z m 20.136535,-3.321421 v 0.590663 c 0.04735,0.427454 0.04735,0.723492 0.04735,0.887409 0,2.889727 -1.973242,4.46742 -5.597692,4.46742 -3.439755,0 -5.367216,-1.642694 -5.367216,-4.599543 v -7.588186 c 0,-3.087558 1.835903,-4.566336 5.551123,-4.566336 3.301628,0 5.365638,1.54378 5.365638,4.073175 v 4.795959 h -6.926078 v 3.582132 c 0,1.182033 0.412013,1.674489 1.468092,1.674489 0.505149,0 0.962942,-0.19783 1.191838,-0.492456 0.228895,-0.295331 0.276253,-0.657077 0.276253,-1.83911 v -0.986323 h 3.989895 z m -3.990684,-4.237797 v -2.760433 c 0,-0.755992 -0.55014,-1.182739 -1.468091,-1.182739 -0.915585,0 -1.466514,0.426747 -1.466514,1.182033 v 2.759726 h 2.934605 z"
     id="path17417"
     inkscape:connector-curvature="0"
     style="fill:#ffffff;stroke-width:0.74677014" />
  <path
     style="fill:#ffffff;stroke-width:0.09563664"
     d="M 32.143635,43.787165 V 38.825157 L 29.53582,31.828262 c -1.434298,-3.848293 -2.607815,-7.010742 -2.607815,-7.027666 0,-0.01692 1.12093,-0.03077 2.490955,-0.03077 h 2.490956 l 0.230014,0.859724 c 0.126507,0.472849 0.399243,1.397806 0.60608,2.055461 0.377947,1.201717 1.243446,4.436427 1.476811,5.51941 0.09144,0.424346 0.168057,0.580896 0.284307,0.580896 0.125625,0 0.226539,-0.298469 0.479229,-1.417384 0.176051,-0.779562 0.725896,-2.808047 1.221875,-4.507746 l 0.901781,-3.090361 h 2.432851 2.432854 l -0.150526,0.395008 c -0.08279,0.217255 -1.254344,3.356847 -2.60345,6.97687 l -2.452926,6.581864 v 5.012803 5.012802 h -2.31259 -2.312591 z"
     id="path17427"
     inkscape:connector-curvature="0" />
  <path
     style="fill:#ffffff;stroke-width:0.09563664"
     d="m 46.479454,48.879937 c -1.635191,-0.27908 -2.970286,-1.14443 -3.548661,-2.300089 -0.533476,-1.065949 -0.566668,-1.509529 -0.531073,-7.09734 0.03122,-4.90124 0.0403,-5.11493 0.241046,-5.673781 0.58027,-1.615392 1.837196,-2.578398 3.860817,-2.957996 1.024041,-0.192095 3.285718,-0.139736 4.175837,0.09667 1.950159,0.517945 3.069077,1.601202 3.459359,3.349105 0.213253,0.955084 0.213019,10.200493 -2.34e-4,11.151563 -0.533349,2.378082 -2.548261,3.599596 -5.891419,3.571594 -0.547685,-0.0046 -1.342216,-0.06746 -1.765621,-0.139727 z m 2.651803,-2.831702 c 0.304054,-0.139015 0.474329,-0.299836 0.62152,-0.587002 0.197341,-0.385016 0.202731,-0.534614 0.202731,-5.626667 0,-5.781167 0.01436,-5.64211 -0.627183,-6.074312 -0.249633,-0.168178 -0.440964,-0.207294 -1.013937,-0.207294 -0.803968,0 -1.113737,0.151957 -1.424152,0.698615 -0.171132,0.301376 -0.182198,0.638065 -0.182198,5.544315 0,3.474285 0.03515,5.311073 0.104965,5.4851 0.33884,0.844638 1.388887,1.19216 2.318254,0.767245 z"
     id="path17429"
     inkscape:connector-curvature="0" />
  <path
     style="fill:#ffffff;stroke-width:0.09563664"
     d="m 61.165073,48.851749 c -1.227982,-0.371068 -1.869056,-1.087816 -2.05404,-2.296506 -0.05862,-0.382988 -0.09886,-3.66063 -0.100027,-8.145999 l -0.0019,-7.505165 h 2.164981 2.164978 v 7.206085 c 0,7.93358 -0.01803,7.692947 0.598993,7.994304 0.463333,0.226292 1.147151,0.136505 1.942573,-0.255066 l 0.656697,-0.32328 0.0252,-7.311022 0.02519,-7.311021 h 2.115179 2.11518 v 8.922548 8.922548 h -1.961531 c -1.783388,0 -1.966094,-0.01478 -2.011758,-0.162651 -0.02763,-0.08946 -0.102796,-0.424052 -0.167048,-0.743545 -0.06426,-0.319493 -0.14522,-0.580896 -0.179929,-0.580896 -0.03471,0 -0.37215,0.213344 -0.749862,0.474097 -1.72371,1.189961 -3.170865,1.542234 -4.582831,1.115569 z"
     id="path17431"
     inkscape:connector-curvature="0" />
</svg>
