<?xml version="1.0" encoding="UTF-8" standalone="no"?>
<!-- Created with Inkscape (http://www.inkscape.org/) -->

<svg
   xmlns:dc="http://purl.org/dc/elements/1.1/"
   xmlns:cc="http://creativecommons.org/ns#"
   xmlns:rdf="http://www.w3.org/1999/02/22-rdf-syntax-ns#"
   xmlns:svg="http://www.w3.org/2000/svg"
   xmlns="http://www.w3.org/2000/svg"
   xmlns:sodipodi="http://sodipodi.sourceforge.net/DTD/sodipodi-0.dtd"
   xmlns:inkscape="http://www.inkscape.org/namespaces/inkscape"
   width="100mm"
   height="100mm"
   viewBox="0 0 210 297"
   version="1.1"
   id="svg8"
   inkscape:version="0.92.3 (2405546, 2018-03-11)"
   sodipodi:docname="aawa.svg">
  <defs
     id="defs2" />
  <sodipodi:namedview
     id="base"
     pagecolor="#ffffff"
     bordercolor="#666666"
     borderopacity="1.0"
     inkscape:pageopacity="0.0"
     inkscape:pageshadow="2"
     inkscape:zoom="0.70710678"
     inkscape:cx="237.22844"
     inkscape:cy="352.33276"
     inkscape:document-units="mm"
     inkscape:current-layer="layer1"
     showgrid="false"
     inkscape:measure-start="393.858,599.45"
     inkscape:measure-end="388.025,608.819"
     inkscape:window-width="1920"
     inkscape:window-height="1057"
     inkscape:window-x="-8"
     inkscape:window-y="-8"
     inkscape:window-maximized="1" />
  <metadata
     id="metadata5">
    <rdf:RDF>
      <cc:Work
         rdf:about="">
        <dc:format>image/svg+xml</dc:format>
        <dc:type
           rdf:resource="http://purl.org/dc/dcmitype/StillImage" />
        <dc:title></dc:title>
      </cc:Work>
    </rdf:RDF>
  </metadata>
  <g
     inkscape:label="レイヤー 1"
     inkscape:groupmode="layer"
     id="layer1">
    <ellipse
       style="fill:#808080;stroke-width:1.21099508"
       id="path30"
       cx="112.31364"
       cy="48.602581"
       rx="40.921185"
       ry="39.77314" />
    <ellipse
       style="fill:#808080;stroke-width:0.92094976"
       id="path37"
       cx="-1.9934338"
       cy="234.47964"
       rx="18.039778"
       ry="17.088848"
       transform="matrix(0.99774864,-0.06706458,0,1,0,0)" />
    <ellipse
       style="fill:#808080;stroke-width:15.44023609"
       id="path39"
       cx="110.77516"
       cy="137.97858"
       rx="44.921013"
       ry="42.646488" />
    <ellipse
       style="fill:#808080;stroke-width:0.83206087"
       id="path37-6"
       cx="234.93011"
       cy="240.51683"
       rx="16.801939"
       ry="14.976933"
       transform="matrix(0.99800679,-0.06310663,0,1,0,0)" />
    <rect
       style="fill:#808080;stroke-width:1.3414166"
       id="rect13031"
       width="83.138557"
       height="153.28568"
       x="97.926826"
       y="97.868713"
       transform="matrix(0.97085447,0.23966977,-0.25003899,0.96823577,0,0)" />
    <rect
       style="fill:#808080;stroke-width:0.5799939"
       id="rect13031-8"
       width="35.071545"
       height="67.931099"
       x="34.649696"
       y="174.75761"
       transform="matrix(0.87487953,-0.4843406,0.50798079,0.8613684,0,0)" />
    <rect
       style="fill:#808080;stroke-width:0.54380357"
       id="rect13031-8-5"
       width="31.962923"
       height="65.526039"
       x="-97.506584"
       y="258.21384"
       transform="matrix(0.57230469,-0.82004106,0.87114265,0.49103002,0,0)"
       inkscape:transform-center-x="10.85439"
       inkscape:transform-center-y="-8.141631" />
    <ellipse
       style="fill:#808080;stroke-width:1.99676454"
       id="path13123"
       cx="174.37213"
       cy="191.96721"
       rx="18.41453"
       ry="15.508508" />
    <rect
       style="fill:#808080;stroke-width:0.5799939"
       id="rect13031-8-0"
       width="35.071545"
       height="67.931099"
       x="34.761189"
       y="185.73512"
       transform="matrix(0.87487953,-0.4843406,0.50798079,0.8613684,0,0)" />
    <rect
       style="fill:#808080;stroke-width:0.64262062"
       id="rect13031-4"
       width="60.343334"
       height="48.468166"
       x="109.71864"
       y="259.16833"
       transform="matrix(0.99992221,0.01247305,-0.28144837,0.95957637,0,0)" />
    <rect
       style="fill:#808080;stroke-width:0.19865352"
       id="rect13031-4-1"
       width="74.14624"
       height="1.2068017"
       x="48.318878"
       y="300.55392"
       transform="matrix(0.99999935,0.00113894,0.18706079,0.98234834,0,0)"
       ry="0.60340083" />
    <rect
       style="fill:#808080;stroke-width:1.20796192"
       id="rect13202"
       width="0.3045857"
       height="2.0210693"
       x="175.68239"
       y="295.37946"
       ry="0.14970875" />
    <rect
       style="fill:#808080;stroke-width:0.4558903"
       id="rect13031-1"
       width="36.070061"
       height="40.808491"
       x="287.94391"
       y="117.13248"
       transform="matrix(0.74378922,0.66841424,-0.86254984,0.50597212,0,0)" />
    <rect
       style="fill:#808080;stroke-width:0.39476636"
       id="rect13031-1-6"
       width="29.783394"
       height="37.058041"
       x="387.47906"
       y="112.13033"
       transform="matrix(0.69744303,0.71664023,-0.99976069,-0.021876,0,0)"
       inkscape:transform-center-x="10.337771"
       inkscape:transform-center-y="-0.0056822004" />
    <rect
       style="fill:#808080;stroke-width:0.41102549"
       id="rect13031-1-6-6"
       width="30.595785"
       height="39.106808"
       x="398.71301"
       y="162.83577"
       transform="matrix(0.71647603,0.69761171,-0.99978511,-0.02072994,0,0)"
       inkscape:transform-center-x="-18.662216"
       inkscape:transform-center-y="13.018968" />
    <rect
       style="fill:#808080;stroke-width:0.59332335"
       id="rect13031-1-6-6-8"
       width="48.866379"
       height="51.02103"
       x="313.3078"
       y="84.927841"
       transform="matrix(0.67044646,0.74195792,-0.997056,0.07667683,0,0)"
       inkscape:transform-center-x="-26.845812"
       inkscape:transform-center-y="21.383833" />
    <rect
       style="fill:#808080;stroke-width:0.66541612"
       id="rect13031-0"
       width="33.820713"
       height="92.721542"
       x="144.53238"
       y="51.771885"
       transform="matrix(0.8449022,0.53492081,-0.82604823,0.56359943,0,0)" />
    <rect
       style="fill:#808080;stroke-width:0.64413404"
       id="rect13031-0-0"
       width="37.863281"
       height="77.608833"
       x="45.333485"
       y="174.05046"
       transform="matrix(0.99521904,-0.0976681,-0.26341862,0.96468162,0,0)" />
    <ellipse
       style="fill:#808080;stroke-width:0.92094976"
       id="path37-4"
       cx="15.754867"
       cy="170.88872"
       rx="18.039776"
       ry="17.08885"
       transform="matrix(0.99774864,-0.06706458,0,1,0,0)" />
    <rect
       style="fill:#808080;stroke-width:0.66657591"
       id="rect13031-0-1"
       width="32.519543"
       height="96.767937"
       x="147.36215"
       y="63.346119"
       transform="matrix(0.87870825,0.47735921,-0.79150658,0.61116065,0,0)" />
    <path
       style="fill:#000000;stroke-width:0.42707902"
       d="m 52.825497,296.80827 c -13.740876,-0.18966 -25.976753,-0.40061 -27.190783,-0.46895 l -2.207333,-0.12358 3.608132,-12.27973 c 1.984477,-6.7539 4.857107,-16.66243 6.383613,-22.01891 2.683848,-9.41774 26.159575,-99.80094 25.964181,-99.96396 -0.05314,-0.0453 -6.344623,4.75606 -13.981149,10.6675 -7.636507,5.91148 -14.178518,10.74813 -14.537776,10.74813 -0.359264,0 -0.653204,0.0974 -0.653204,0.21637 0,0.74862 -13.875691,50.82028 -14.134078,51.00407 -0.175948,0.12492 -0.553699,1.35649 -0.839447,2.73629 -0.661392,3.19372 -2.713876,6.55018 -5.5957468,9.15082 -6.7653139,6.10511 -16.579753,6.68076 -23.6535862,1.38746 -2.015664,-1.50832 -4.622282,-5.4435 -5.263264,-7.94593 -0.271727,-1.06085 -0.747077,-1.9253 -1.058644,-1.9253 -0.669822,0 -1.079553,1.5941 9.532591,-37.08669 4.2863137,-15.62342 8.3045336,-30.38882 8.9293946,-32.81206 0.6248666,-2.42324 1.28776763,-4.50322 1.4731228,-4.62217 0.18534205,-0.11906 0.6374737,-0.78793 1.00469481,-1.48661 1.07768359,-2.05038 4.29449629,-5.06402 7.17993559,-6.72643 1.4749137,-0.84978 18.1920732,-12.12985 37.1492362,-25.06685 18.957192,-12.93702 34.565409,-23.42569 34.684963,-23.30818 0.119538,0.1177 1.60236,-0.83203 3.295097,-2.11017 3.813976,-2.87975 10.45165,-6.141233 15.569455,-7.650181 3.629778,-1.070233 4.411848,-1.143696 12.276358,-1.153023 7.9477,-0.0093 8.6082,0.05252 12.27636,1.15293 4.67655,1.402849 9.98363,3.831244 13.65723,6.249244 3.9583,2.60533 10.0827,8.95044 12.67283,13.12946 4.98943,8.05025 16.81713,28.00745 36.4035,61.42464 l 1.64979,2.81474 28.15725,15.86351 c 15.4866,8.72489 28.79616,16.41399 29.5769,17.08687 3.64651,3.14276 5.27881,5.81333 5.82392,9.52833 0.39279,2.67808 -0.70937,6.66153 -2.63098,9.5074 -5.31569,7.87253 -17.19077,10.16273 -24.75638,4.77451 -3.55447,-2.53152 -53.58032,-30.49344 -56.30007,-31.46887 -1.48369,-0.53216 -3.94327,-1.8954 -5.46571,-3.0295 -3.01878,-2.24868 -2.36743,-1.28004 -13.7596,-20.46261 -3.055,-5.14413 -5.67181,-9.24097 -5.81513,-9.10404 -0.14331,0.1367 -4.05819,14.9338 -8.6997,32.88205 l -8.43917,32.63317 15.71505,17.41086 c 15.05618,16.68062 36.43199,39.21773 37.19698,39.21773 0.20031,0 0.36469,0.19057 0.36469,0.42324 0,0.27883 -12.52364,0.42142 -36.7213,0.4178 l -36.7214,-0.005 -8.399608,-7.57377 c -4.61979,-4.16553 -8.454308,-7.52316 -8.521182,-7.46127 -0.0669,0.062 -1.139352,3.6155 -2.383318,7.89709 l -2.261757,7.78471 -2.785655,0.0453 c -1.532119,0.0271 -14.028191,-0.10999 -27.769119,-0.29966 z m 59.996273,-1.5386 c -1.11739,-0.0869 -3.05578,-0.0878 -4.30751,-0.002 -1.25173,0.0856 -0.33748,0.15707 2.03163,0.15798 2.36913,9.7e-4 3.39328,-0.0692 2.27588,-0.15618 z"
       id="path13324"
       inkscape:connector-curvature="0" />
    <path
       style="fill:#000000;stroke-width:0.42707902"
       d="M 105.44571,87.678497 C 84.966287,84.028172 70.423649,66.15472 71.701934,46.206073 72.687464,30.826331 82.56565,17.603836 97.408028,11.797215 c 9.364002,-3.6633791 21.029292,-3.5596782 30.622382,0.272231 6.22504,2.486527 13.51401,8.166182 17.40964,13.565702 7.81027,10.82543 9.68379,24.920311 4.92498,37.050991 -4.54435,11.583951 -14.32681,20.292122 -26.89666,23.94304 -3.19746,0.928729 -4.93337,1.151845 -9.90724,1.273476 -3.31677,0.08103 -6.96872,-0.0181 -8.11542,-0.224068 z"
       id="path13326"
       inkscape:connector-curvature="0" />
  </g>
  <g
     inkscape:groupmode="layer"
     id="layer2"
     inkscape:label="レイヤー 2" />
</svg>
